<mxfile host="app.diagrams.net" modified="2023-06-29T11:39:50.199Z" agent="Mozilla/5.0 (Macintosh; Intel Mac OS X 10_15_7) AppleWebKit/605.1.15 (KHTML, like Gecko) Version/16.1 Safari/605.1.15" version="21.5.2" etag="ijSiI4p7pMrJF7PJBnUi" type="github">
  <diagram name="第 1 页" id="HSBzwwtiSDNfv9kWCfSh">
    <mxGraphModel>
      <root>
        <mxCell id="0" />
        <mxCell id="1" parent="0" />
      </root>
    </mxGraphModel>
  </diagram>
</mxfile>
